<?xml version="1.0" encoding="utf-8"?>
<!-- Generator: Adobe Illustrator 15.0.0, SVG Export Plug-In . SVG Version: 6.00 Build 0)  -->
<!DOCTYPE svg PUBLIC "-//W3C//DTD SVG 1.1//EN" "http://www.w3.org/Graphics/SVG/1.1/DTD/svg11.dtd">
<svg version="1.1" id="Layer_1" xmlns="http://www.w3.org/2000/svg" xmlns:xlink="http://www.w3.org/1999/xlink" x="0px" y="0px"
	 width="256px" height="256px" viewBox="0 0 256 256" enable-background="new 0 0 256 256" xml:space="preserve">
<polygon fill="#7C878E" points="43.084,170.524 49.872,170.524 49.872,92.768 43.084,92.768 43.084,145.121 37.267,145.121 
	37.267,151.133 43.084,151.133 "/>
<polygon fill="#7C878E" points="87.102,127.865 97.571,127.865 97.571,150.745 104.36,150.745 104.36,134.457 109.399,134.457 
	109.399,127.671 104.36,127.671 100.092,127.671 97.766,127.671 97.766,121.713 87.102,121.713 87.102,121.66 80.314,121.66 
	80.314,145.123 87.102,145.123 "/>
<polygon fill="#7C878E" points="109.417,134.528 109.417,140.433 115.218,140.433 115.218,180.803 109.593,180.803 109.593,198.446 
	103.583,198.446 103.583,210.082 55.883,210.082 55.883,198.446 49.678,198.446 49.678,186.812 43.862,186.812 43.862,175.179 
	37.462,175.179 37.462,161.993 31.839,161.993 31.839,156.369 25.439,156.369 25.439,145.123 37.073,145.123 37.073,139.112 
	25.439,139.112 20.398,139.112 20.01,139.112 20.01,156.563 25.439,156.563 25.439,162.38 31.645,162.38 31.645,175.179 
	37.268,175.179 37.268,187.006 43.862,187.006 43.862,198.446 49.289,198.446 49.289,210.082 49.289,211.05 49.289,216.092 
	110.372,216.092 110.372,210.082 110.371,210.082 110.371,198.446 116.381,198.446 116.381,180.995 122.005,180.995 
	122.005,140.275 115.218,140.275 115.218,134.528 "/>
<polygon fill="#7C878E" points="68.488,121.588 80.292,121.588 80.292,115.746 68.488,115.746 68.488,92.67 61.7,92.67 61.7,145.8 
	68.488,145.8 "/>
<rect x="50.064" y="86.757" fill="#7C878E" width="11.634" height="6.011"/>
<path fill="#7C878E" stroke="#FFFFFF" stroke-width="2" stroke-miterlimit="10" d="M246.352,6.222H9.389
	c-1.802,0-3.263,1.461-3.263,3.263v93.881c0,1.802,1.461,3.264,3.263,3.264h27.42v-6.527H12.652V12.748h230.437v87.355H74.763v6.527
	h171.589c1.802,0,3.264-1.461,3.264-3.264V9.485C249.615,7.683,248.153,6.222,246.352,6.222"/>
<g>
	<path fill="#7C878E" d="M83.299,49.63l-1.146-3.083h-7.802l-1.146,3.083h-4.392l7.011-18.195h4.855l7.011,18.195H83.299z
		 M78.252,35.308l-2.837,7.83h5.674L78.252,35.308z"/>
	<path fill="#7C878E" d="M88.455,43.029c0-4.038,2.947-6.902,6.983-6.902c2.701,0,4.338,1.173,5.211,2.374l-2.264,2.128
		c-0.627-0.927-1.582-1.418-2.783-1.418c-2.1,0-3.574,1.527-3.574,3.819c0,2.291,1.474,3.846,3.574,3.846
		c1.201,0,2.155-0.546,2.783-1.446l2.264,2.128c-0.873,1.2-2.51,2.401-5.211,2.401C91.402,49.958,88.455,47.093,88.455,43.029z"/>
	<path fill="#7C878E" d="M102.068,43.029c0-4.038,2.946-6.902,6.983-6.902c2.701,0,4.338,1.173,5.21,2.374l-2.264,2.128
		c-0.627-0.927-1.582-1.418-2.783-1.418c-2.1,0-3.574,1.527-3.574,3.819c0,2.291,1.474,3.846,3.574,3.846
		c1.201,0,2.155-0.546,2.783-1.446l2.264,2.128c-0.873,1.2-2.509,2.401-5.21,2.401C105.015,49.958,102.068,47.093,102.068,43.029z"
		/>
	<path fill="#7C878E" d="M115.681,43.029c0-3.819,2.838-6.902,6.821-6.902c3.955,0,6.601,2.946,6.601,7.229v0.818h-9.793
		c0.245,1.609,1.555,2.946,3.792,2.946c1.118,0,2.646-0.464,3.493-1.282l1.555,2.292c-1.31,1.2-3.383,1.828-5.429,1.828
		C118.709,49.958,115.681,47.257,115.681,43.029z M122.502,38.964c-2.156,0-3.084,1.5-3.22,2.81h6.493
		C125.666,40.519,124.793,38.964,122.502,38.964z"/>
	<path fill="#7C878E" d="M130.467,47.912l1.502-2.51c0.98,0.927,2.917,1.828,4.555,1.828c1.501,0,2.21-0.573,2.21-1.391
		c0-2.155-7.802-0.382-7.802-5.565c0-2.21,1.909-4.147,5.4-4.147c2.21,0,3.983,0.764,5.292,1.8l-1.391,2.456
		c-0.79-0.818-2.291-1.527-3.901-1.527c-1.254,0-2.072,0.545-2.072,1.282c0,1.937,7.829,0.3,7.829,5.62
		c0,2.428-2.074,4.201-5.729,4.201C134.068,49.958,131.858,49.194,130.467,47.912z"/>
	<path fill="#7C878E" d="M143.781,43.029c0-3.738,2.618-6.902,6.955-6.902c4.364,0,6.983,3.165,6.983,6.902
		c0,3.737-2.619,6.929-6.983,6.929C146.399,49.958,143.781,46.766,143.781,43.029z M154.118,43.029c0-2.046-1.199-3.819-3.382-3.819
		c-2.154,0-3.355,1.773-3.355,3.819c0,2.073,1.201,3.846,3.355,3.846C152.919,46.875,154.118,45.102,154.118,43.029z"/>
	<path fill="#7C878E" d="M175.234,49.63v-1.391c-0.901,1.091-2.456,1.719-4.173,1.719c-2.102,0-4.558-1.418-4.558-4.365
		c0-3.11,2.456-4.256,4.558-4.256c1.771,0,3.301,0.573,4.173,1.61v-1.664c0-1.337-1.146-2.21-2.892-2.21
		c-1.392,0-2.7,0.546-3.792,1.555l-1.364-2.428c1.61-1.445,3.683-2.073,5.757-2.073c3.027,0,5.782,1.201,5.782,4.993v8.511H175.234z
		 M175.234,46.465v-1.636c-0.573-0.764-1.665-1.173-2.783-1.173c-1.362,0-2.481,0.737-2.481,1.992c0,1.254,1.119,1.964,2.481,1.964
		C173.569,47.611,174.661,47.229,175.234,46.465z"/>
	<path fill="#7C878E" d="M182.137,49.63V31.435h3.464V49.63H182.137z"/>
</g>
<g>
	<path fill="#7C878E" d="M33.73,68.154c0-5.62,4.228-9.412,9.711-9.412c3.983,0,6.302,2.155,7.584,4.447l-3.328,1.637
		c-0.764-1.473-2.401-2.646-4.256-2.646c-3.328,0-5.728,2.537-5.728,5.974c0,3.438,2.4,5.974,5.728,5.974
		c1.855,0,3.492-1.173,4.256-2.646l3.328,1.609c-1.282,2.264-3.601,4.474-7.584,4.474C37.958,77.565,33.73,73.747,33.73,68.154z"/>
	<path fill="#7C878E" d="M61.174,77.238v-1.391c-0.9,1.091-2.455,1.718-4.174,1.718c-2.101,0-4.556-1.418-4.556-4.364
		c0-3.11,2.455-4.256,4.556-4.256c1.773,0,3.301,0.573,4.174,1.61v-1.664c0-1.337-1.146-2.21-2.892-2.21
		c-1.392,0-2.7,0.546-3.792,1.555l-1.364-2.428c1.609-1.446,3.683-2.074,5.756-2.074c3.028,0,5.783,1.201,5.783,4.992v8.511H61.174z
		 M61.174,74.074v-1.637c-0.573-0.764-1.665-1.173-2.782-1.173c-1.364,0-2.482,0.736-2.482,1.992c0,1.254,1.118,1.964,2.482,1.964
		C59.51,75.22,60.601,74.837,61.174,74.074z"/>
	<path fill="#7C878E" d="M84.417,77.238v-8.32c0-1.228-0.546-2.1-1.964-2.1c-1.228,0-2.237,0.818-2.728,1.527v8.893h-3.492v-8.32
		c0-1.228-0.545-2.1-1.964-2.1c-1.2,0-2.21,0.818-2.728,1.527v8.893h-3.464V64.062h3.464v1.691c0.573-0.764,2.292-2.019,4.31-2.019
		c1.937,0,3.192,0.9,3.656,2.374c0.764-1.173,2.51-2.374,4.528-2.374c2.428,0,3.874,1.282,3.874,3.983v9.521H84.417z"/>
	<path fill="#7C878E" d="M94.812,75.547v6.71h-3.465V64.062h3.465v1.664c1.009-1.282,2.455-1.992,4.064-1.992
		c3.383,0,5.838,2.51,5.838,6.902s-2.455,6.929-5.838,6.929C97.321,77.565,95.902,76.911,94.812,75.547z M101.14,70.637
		c0-2.264-1.364-3.819-3.355-3.819c-1.119,0-2.374,0.627-2.974,1.5v4.637c0.573,0.846,1.854,1.528,2.974,1.528
		C99.776,74.483,101.14,72.928,101.14,70.637z"/>
	<path fill="#7C878E" d="M116.144,77.238v-1.664c-0.899,0.982-2.482,1.991-4.637,1.991c-2.892,0-4.256-1.582-4.256-4.146v-9.357
		h3.465v7.993c0,1.828,0.955,2.428,2.427,2.428c1.337,0,2.401-0.737,3-1.5v-8.92h3.466v13.176H116.144z"/>
	<path fill="#7C878E" d="M121.901,75.52l1.501-2.509c0.981,0.927,2.918,1.827,4.556,1.827c1.501,0,2.21-0.573,2.21-1.391
		c0-2.155-7.803-0.382-7.803-5.565c0-2.21,1.909-4.147,5.401-4.147c2.21,0,3.983,0.764,5.292,1.8l-1.391,2.456
		c-0.792-0.818-2.293-1.527-3.901-1.527c-1.254,0-2.073,0.545-2.073,1.282c0,1.937,7.828,0.3,7.828,5.62
		c0,2.428-2.072,4.201-5.728,4.201C125.502,77.565,123.292,76.802,121.901,75.52z"/>
	<path fill="#7C878E" d="M148.255,77.238l-7.011-18.195h4.392l5.046,13.967l5.047-13.967h4.393l-7.011,18.195H148.255z"/>
	<path fill="#7C878E" d="M161.404,60.571c0-1.146,0.927-2.046,2.045-2.046c1.146,0,2.072,0.9,2.072,2.046s-0.927,2.073-2.072,2.073
		C162.331,62.644,161.404,61.717,161.404,60.571z M161.73,77.238V64.062h3.466v13.176H161.73z"/>
	<path fill="#7C878E" d="M168.633,77.238V64.062h3.464v1.773c0.955-1.146,2.564-2.101,4.2-2.101v3.383
		c-0.244-0.055-0.545-0.082-0.954-0.082c-1.146,0-2.673,0.654-3.246,1.5v8.702H168.633z"/>
	<path fill="#7C878E" d="M179.162,73.938V67.09h-2.183v-3.028h2.183v-3.601h3.464v3.601h2.675v3.028h-2.675v5.92
		c0,0.845,0.438,1.473,1.201,1.473c0.518,0,1.009-0.191,1.2-0.41l0.736,2.646c-0.518,0.463-1.446,0.845-2.892,0.845
		C180.445,77.565,179.162,76.311,179.162,73.938z"/>
	<path fill="#7C878E" d="M196.566,77.238v-1.664c-0.899,0.982-2.481,1.991-4.637,1.991c-2.892,0-4.257-1.582-4.257-4.146v-9.357
		h3.466v7.993c0,1.828,0.954,2.428,2.427,2.428c1.338,0,2.401-0.737,3.001-1.5v-8.92h3.466v13.176H196.566z"/>
	<path fill="#7C878E" d="M211.381,77.238v-1.391c-0.901,1.091-2.456,1.718-4.173,1.718c-2.102,0-4.558-1.418-4.558-4.364
		c0-3.11,2.456-4.256,4.558-4.256c1.771,0,3.301,0.573,4.173,1.61v-1.664c0-1.337-1.146-2.21-2.892-2.21
		c-1.392,0-2.7,0.546-3.792,1.555l-1.364-2.428c1.61-1.446,3.683-2.074,5.757-2.074c3.027,0,5.782,1.201,5.782,4.992v8.511H211.381z
		 M211.381,74.074v-1.637c-0.573-0.764-1.665-1.173-2.783-1.173c-1.363,0-2.481,0.736-2.481,1.992c0,1.254,1.118,1.964,2.481,1.964
		C209.716,75.22,210.808,74.837,211.381,74.074z"/>
	<path fill="#7C878E" d="M218.283,77.238V59.043h3.464v18.195H218.283z"/>
</g>
</svg>
